<?xml version="1.0" encoding="UTF-8" standalone="no"?>
<svg
   id="visual"
   viewBox="0 0 900 600"
   width="900"
   height="600"
   version="1.1"
   sodipodi:docname="about-bg.svg"
   inkscape:version="1.2.2 (b0a8486541, 2022-12-01)"
   xmlns:inkscape="http://www.inkscape.org/namespaces/inkscape"
   xmlns:sodipodi="http://sodipodi.sourceforge.net/DTD/sodipodi-0.dtd"
   xmlns:xlink="http://www.w3.org/1999/xlink"
   xmlns="http://www.w3.org/2000/svg"
   xmlns:svg="http://www.w3.org/2000/svg">
  <sodipodi:namedview
     id="namedview27"
     pagecolor="#ffffff"
     bordercolor="#000000"
     borderopacity="0.25"
     inkscape:showpageshadow="2"
     inkscape:pageopacity="0.0"
     inkscape:pagecheckerboard="0"
     inkscape:deskcolor="#d1d1d1"
     showgrid="false"
     inkscape:zoom="0.37972222"
     inkscape:cx="327.87125"
     inkscape:cy="387.12509"
     inkscape:window-width="1155"
     inkscape:window-height="1259"
     inkscape:window-x="-2"
     inkscape:window-y="97"
     inkscape:window-maximized="1"
     inkscape:current-layer="visual" />
  <rect
     x="0"
     y="0"
     width="900"
     height="600"
     fill="#661ae6"
     id="rect2"
     style="opacity:0.246429;fill:url(#linearGradient897);fill-opacity:1" />
  <defs
     id="defs9">
    <linearGradient
       inkscape:collect="always"
       id="linearGradient895">
      <stop
         style="stop-color:#661ae6;stop-opacity:1;"
         offset="0"
         id="stop891" />
      <stop
         style="stop-color:#e61ae6;stop-opacity:1;"
         offset="1"
         id="stop893" />
    </linearGradient>
    <linearGradient
       id="grad1_0"
       x1="0.333"
       y1="0"
       x2="1"
       y2="1">
      <stop
         offset="20%"
         stop-color="#661ae6"
         stop-opacity="1"
         id="stop4" />
      <stop
         offset="80%"
         stop-color="#661ae6"
         stop-opacity="1"
         id="stop6" />
    </linearGradient>
    <linearGradient
       inkscape:collect="always"
       xlink:href="#linearGradient895"
       id="linearGradient897"
       x1="541.63416"
       y1="529.00574"
       x2="872.48254"
       y2="180.01421"
       gradientUnits="userSpaceOnUse" />
    <filter
       inkscape:collect="always"
       style="color-interpolation-filters:sRGB"
       id="filter1396"
       x="-1.682243"
       y="-1.8145161"
       width="4.364486"
       height="4.6290323">
      <feGaussianBlur
         inkscape:collect="always"
         stdDeviation="375"
         id="feGaussianBlur1398" />
    </filter>
    <filter
       inkscape:collect="always"
       style="color-interpolation-filters:sRGB"
       id="filter1400"
       x="-1.8444398"
       y="-1.9224561"
       width="4.6888796"
       height="4.8449121">
      <feGaussianBlur
         inkscape:collect="always"
         stdDeviation="375"
         id="feGaussianBlur1402" />
    </filter>
  </defs>
  <defs
     id="defs16">
    <linearGradient
       id="grad2_0"
       x1="0"
       y1="0"
       x2="0.667"
       y2="1">
      <stop
         offset="20%"
         stop-color="#661ae6"
         stop-opacity="1"
         id="stop11" />
      <stop
         offset="80%"
         stop-color="#661ae6"
         stop-opacity="1"
         id="stop13" />
    </linearGradient>
  </defs>
  <g
     transform="translate(975.98708,-38.734529)"
     id="g20">
    <path
       d="m 0,468 c -33.3,-3.4 -66.6,-6.7 -105.9,-3.9 -39.4,2.7 -84.8,11.7 -112.3,-10.9 -27.6,-22.6 -37.3,-76.7 -58,-106.8 -20.7,-30.2 -52.4,-36.5 -98.3,-47.7 -45.9,-11.3 -106.1,-27.7 -112.8,-64 -6.7,-36.4 40.1,-92.8 51.5,-135.2 C -424.3,57 -448.2,28.5 -472,0 H 0 Z"
       fill="#000000"
       id="path18"
       style="opacity:1;mix-blend-mode:normal;filter:url(#filter1400)" />
  </g>
  <g
     transform="translate(-5.6662036,758.2426)"
     id="g24">
    <path
       d="m 0,-496 c 28.6,37.6 57.1,75.2 97.2,70 40.2,-5.3 91.9,-53.3 137.5,-61.3 45.5,-7.9 85,24.2 97.6,70.6 12.7,46.4 -1.5,107.1 10.9,143 12.5,35.9 51.5,47.1 80.3,69.8 28.7,22.6 47.1,56.7 64,92.6 16.8,35.9 32.2,73.6 47.5,111.3 H 0 Z"
       fill="#000000"
       id="path22"
       style="opacity:1;mix-blend-mode:normal;filter:url(#filter1396)" />
  </g>
</svg>
