<?xml version="1.0" encoding="UTF-8" standalone="no"?>
<svg
   id="visual"
   viewBox="0 0 1920 1080"
   width="1920"
   height="1080"
   version="1.1"
   xmlns="http://www.w3.org/2000/svg"
   xmlns:svg="http://www.w3.org/2000/svg">
  <rect
     x="0"
     y="0"
     width="1920"
     height="1080"
     fill="#111318"
     id="rect2" />
  <defs
     id="defs9" />
  <defs
     id="defs16" />
  <g
     transform="translate(1920)"
     id="g20">
    <path
       d="m 0,486 c -71.3,2.2 -142.5,4.4 -186,-37 -43.4,-41.4 -59.1,-126.5 -81.3,-181.7 -22.2,-55.2 -50.9,-80.4 -88.4,-120 C -393.2,107.8 -439.6,53.9 -486,0 H 0 Z"
       fill="#d926aa"
       id="path18" />
  </g>
  <g
     transform="translate(0,1080)"
     id="g24">
    <path
       d="m 0,-486 c 64.8,3.4 129.6,6.8 186,37 56.3,30.2 104.2,87.2 116.6,146.4 12.5,59.1 -10.4,120.5 14.3,171.3 C 341.6,-80.5 413.8,-40.2 486,0 H 0 Z"
       fill="#d926aa"
       id="path22" />
  </g>
</svg>
