<?xml version="1.0" encoding="UTF-8" standalone="no"?>
<svg
   id="visual"
   viewBox="0 0 540 960"
   width="540"
   height="960"
   version="1.1"
   sodipodi:docname="blob-scene-haikei-sm.svg"
   inkscape:export-filename="blob-scene-haikei-sm.svg"
   inkscape:export-xdpi="192"
   inkscape:export-ydpi="192"
   inkscape:version="1.2.2 (b0a8486541, 2022-12-01)"
   xmlns:inkscape="http://www.inkscape.org/namespaces/inkscape"
   xmlns:sodipodi="http://sodipodi.sourceforge.net/DTD/sodipodi-0.dtd"
   xmlns="http://www.w3.org/2000/svg"
   xmlns:svg="http://www.w3.org/2000/svg">
  <sodipodi:namedview
     id="namedview27"
     pagecolor="#ffffff"
     bordercolor="#000000"
     borderopacity="0.25"
     inkscape:showpageshadow="2"
     inkscape:pageopacity="0.0"
     inkscape:pagecheckerboard="0"
     inkscape:deskcolor="#d1d1d1"
     showgrid="false"
     inkscape:zoom="0.934375"
     inkscape:cx="187.29097"
     inkscape:cy="481.07023"
     inkscape:window-width="1499"
     inkscape:window-height="1236"
     inkscape:window-x="1608"
     inkscape:window-y="116"
     inkscape:window-maximized="1"
     inkscape:current-layer="visual" />
  <rect
     x="0"
     y="0"
     width="540"
     height="960"
     fill="#111318"
     id="rect2" />
  <defs
     id="defs9">
    <linearGradient
       id="grad1_0"
       x1="0%"
       y1="0%"
       x2="100%"
       y2="100%">
      <stop
         offset="30%"
         stop-color="#111318"
         stop-opacity="1"
         id="stop4" />
      <stop
         offset="70%"
         stop-color="#111318"
         stop-opacity="1"
         id="stop6" />
    </linearGradient>
  </defs>
  <defs
     id="defs16">
    <linearGradient
       id="grad2_0"
       x1="0%"
       y1="0%"
       x2="100%"
       y2="100%">
      <stop
         offset="30%"
         stop-color="#111318"
         stop-opacity="1"
         id="stop11" />
      <stop
         offset="70%"
         stop-color="#111318"
         stop-opacity="1"
         id="stop13" />
    </linearGradient>
  </defs>
  <g
     transform="matrix(1.3218287,0,0,1.3218287,540,0)"
     id="g20"
     style="fill:#3abff8;fill-opacity:1">
    <path
       d="m 0,243 c -34.6,-0.7 -69.2,-1.3 -93,-18.5 -23.8,-17.2 -36.7,-50.8 -56.9,-74.6 -20.2,-23.8 -47.7,-37.8 -64.4,-61.1 C -231.1,65.4 -237,32.7 -243,0 H 0 Z"
       fill="#d926aa"
       id="path18"
       style="fill:#3abff8;fill-opacity:1" />
  </g>
  <g
     transform="matrix(1.3937518,0,0,1.3937518,0,960)"
     id="g24"
     style="fill:#3abff8;fill-opacity:1">
    <path
       d="m 0,-243 c 19,34 37.9,68 69.6,74.9 31.7,6.8 76.2,-13.4 102.2,-3.7 26.1,9.7 33.7,49.4 42.5,83 8.8,33.7 18.8,61.2 28.7,88.8 H 0 Z"
       fill="#d926aa"
       id="path22"
       style="fill:#3abff8;fill-opacity:1" />
  </g>
</svg>
