<svg id="visual" viewBox="0 0 1920 1080" width="1920" height="1080" xmlns="http://www.w3.org/2000/svg" xmlns:xlink="http://www.w3.org/1999/xlink" version="1.1"><rect x="0" y="0" width="1920" height="1080" fill="#111318"></rect><defs><linearGradient id="grad1_0" x1="43.8%" y1="0%" x2="100%" y2="100%"><stop offset="14.444444444444446%" stop-color="#111318" stop-opacity="1"></stop><stop offset="85.55555555555554%" stop-color="#111318" stop-opacity="1"></stop></linearGradient></defs><defs><linearGradient id="grad2_0" x1="0%" y1="0%" x2="56.3%" y2="100%"><stop offset="14.444444444444446%" stop-color="#111318" stop-opacity="1"></stop><stop offset="85.55555555555554%" stop-color="#111318" stop-opacity="1"></stop></linearGradient></defs><g transform="translate(1920, 0)"><path d="M0 486C-71.3 488.2 -142.5 490.4 -186 449C-229.4 407.6 -245.1 322.5 -267.3 267.3C-289.5 212.1 -318.2 186.9 -355.7 147.3C-393.2 107.8 -439.6 53.9 -486 0L0 0Z" fill="#d926aa"></path></g><g transform="translate(0, 1080)"><path d="M0 -486C64.8 -482.6 129.6 -479.2 186 -449C242.3 -418.8 290.2 -361.8 302.6 -302.6C315.1 -243.5 292.2 -182.1 316.9 -131.3C341.6 -80.5 413.8 -40.2 486 0L0 0Z" fill="#d926aa"></path></g></svg>