<?xml version="1.0" encoding="UTF-8" standalone="no"?>
<svg
   id="visual"
   viewBox="0 0 540 960"
   width="540"
   height="960"
   version="1.1"
   sodipodi:docname="blob-scene-haikei-sm.svg"
   inkscape:export-filename="blob-scene-haikei-sm.svg"
   inkscape:export-xdpi="192"
   inkscape:export-ydpi="192"
   inkscape:version="1.2.2 (b0a8486541, 2022-12-01)"
   xmlns:inkscape="http://www.inkscape.org/namespaces/inkscape"
   xmlns:sodipodi="http://sodipodi.sourceforge.net/DTD/sodipodi-0.dtd"
   xmlns="http://www.w3.org/2000/svg"
   xmlns:svg="http://www.w3.org/2000/svg">
  <sodipodi:namedview
     id="namedview27"
     pagecolor="#ffffff"
     bordercolor="#000000"
     borderopacity="0.25"
     inkscape:showpageshadow="2"
     inkscape:pageopacity="0.0"
     inkscape:pagecheckerboard="0"
     inkscape:deskcolor="#d1d1d1"
     showgrid="false"
     inkscape:zoom="0.934375"
     inkscape:cx="16.053512"
     inkscape:cy="480"
     inkscape:window-width="1499"
     inkscape:window-height="1080"
     inkscape:window-x="208"
     inkscape:window-y="14"
     inkscape:window-maximized="1"
     inkscape:current-layer="visual" />
  <rect
     x="0"
     y="0"
     width="540"
     height="960"
     fill="#111318"
     id="rect2" />
  <defs
     id="defs9">
    <linearGradient
       id="grad1_0"
       x1="0%"
       y1="0%"
       x2="100%"
       y2="100%">
      <stop
         offset="30%"
         stop-color="#111318"
         stop-opacity="1"
         id="stop4" />
      <stop
         offset="70%"
         stop-color="#111318"
         stop-opacity="1"
         id="stop6" />
    </linearGradient>
  </defs>
  <defs
     id="defs16">
    <linearGradient
       id="grad2_0"
       x1="0%"
       y1="0%"
       x2="100%"
       y2="100%">
      <stop
         offset="30%"
         stop-color="#111318"
         stop-opacity="1"
         id="stop11" />
      <stop
         offset="70%"
         stop-color="#111318"
         stop-opacity="1"
         id="stop13" />
    </linearGradient>
  </defs>
  <g
     transform="translate(540, 0)"
     id="g20">
    <path
       d="M0 243C-34.6 242.3 -69.2 241.7 -93 224.5C-116.8 207.3 -129.7 173.7 -149.9 149.9C-170.1 126.1 -197.6 112.1 -214.3 88.8C-231.1 65.4 -237 32.7 -243 0L0 0Z"
       fill="#d926aa"
       id="path18" />
  </g>
  <g
     transform="translate(0, 960)"
     id="g24">
    <path
       d="M0 -243C19 -209 37.9 -175 69.6 -168.1C101.3 -161.3 145.8 -181.5 171.8 -171.8C197.9 -162.1 205.5 -122.4 214.3 -88.8C223.1 -55.1 233.1 -27.6 243 0L0 0Z"
       fill="#d926aa"
       id="path22" />
  </g>
</svg>
